<?xml version="1.0" encoding="UTF-8"?>
<svg xmlns="http://www.w3.org/2000/svg" xmlns:xlink="http://www.w3.org/1999/xlink" width="13px" height="32px" viewBox="0 0 13 32" version="1.1">
<g id="surface1">
<path style=" stroke:none;fill-rule:nonzero;fill:rgb(94.509804%,79.215686%,26.27451%);fill-opacity:1;" d="M 9.730469 29.210938 L 11.453125 30.191406 L 11.449219 31.234375 L 1.546875 31.234375 L 1.566406 30.230469 L 3.296875 29.210938 C 3.296875 29.210938 3.332031 15.957031 3.332031 15.957031 C 3.425781 15.871094 3.769531 15.640625 3.890625 15.589844 C 4.019531 15.539062 4.148438 15.394531 4.207031 15.246094 C 4.261719 15.105469 4.449219 14.835938 4.621094 14.648438 C 4.910156 14.339844 5.070312 14.148438 5.074219 14.035156 C 5.074219 13.90625 4.617188 13.609375 4.085938 13.304688 C 3.160156 12.769531 2.894531 12.414062 2.9375 11.765625 L 2.960938 11.390625 C 2.960938 11.390625 3.339844 11.378906 3.753906 11.378906 C 4.46875 11.382812 4.605469 11.375 4.605469 11.183594 C 4.605469 11.003906 4.703125 10.949219 4.898438 10.757812 C 5.011719 10.648438 5.078125 10.367188 5.113281 10.070312 C 5.152344 9.714844 5.152344 9.46875 5.113281 9.257812 C 5.113281 9.257812 4.960938 9.191406 4.566406 8.988281 C 3.511719 8.449219 1.945312 6.625 1.945312 5.933594 C 1.945312 5.851562 2.03125 5.660156 2.136719 5.507812 C 2.238281 5.355469 2.367188 5.023438 2.417969 4.769531 C 2.535156 4.171875 2.804688 3.5625 3.148438 3.125 C 3.328125 2.894531 3.40625 2.714844 3.378906 2.609375 C 3.3125 2.355469 3.734375 1.191406 3.949219 1.054688 C 4.046875 0.988281 4.34375 0.898438 4.601562 0.851562 C 6.507812 0.511719 9.164062 1.214844 10.070312 2.296875 C 10.207031 2.457031 10.3125 2.613281 10.3125 2.648438 C 10.3125 2.679688 10.445312 2.984375 10.601562 3.324219 C 10.839844 3.824219 10.882812 3.996094 10.839844 4.246094 C 10.773438 4.636719 10.777344 6.398438 10.847656 6.886719 C 10.898438 7.238281 10.882812 7.292969 10.621094 7.609375 C 10.023438 8.328125 9.832031 8.488281 9.652344 8.441406 C 9.539062 8.414062 9.382812 8.46875 9.207031 8.601562 C 9.054688 8.714844 8.742188 8.90625 8.507812 9.023438 L 8.078125 9.242188 L 8.054688 9.8125 C 8.03125 10.40625 8.167969 10.828125 8.410156 10.921875 C 8.472656 10.945312 8.558594 11.109375 8.558594 11.214844 C 8.558594 11.40625 8.554688 11.394531 9.296875 11.394531 C 9.761719 11.394531 10.191406 11.382812 10.191406 11.382812 C 10.191406 11.382812 10.15625 12.222656 9.921875 12.574219 C 9.785156 12.777344 9.503906 13.003906 9.089844 13.238281 C 8.472656 13.589844 8.039062 13.9375 8.039062 14.089844 C 8.039062 14.128906 8.222656 14.382812 8.445312 14.644531 C 8.667969 14.90625 8.871094 15.203125 8.898438 15.296875 C 8.921875 15.394531 9.042969 15.519531 9.164062 15.570312 C 9.289062 15.625 9.46875 15.742188 9.566406 15.832031 L 9.746094 15.996094 M 8.558594 8.789062 C 9.285156 8.371094 9.304688 8.347656 9.191406 8.042969 C 9.007812 7.542969 9.0625 7.328125 9.464844 6.960938 C 9.792969 6.664062 9.832031 6.589844 9.8125 6.332031 C 9.792969 6.097656 9.742188 6.027344 9.570312 5.972656 C 9.394531 5.914062 9.277344 5.949219 8.898438 6.1875 C 8.363281 6.527344 7.046875 7.1875 6.914062 7.1875 C 6.863281 7.1875 6.820312 7.207031 6.820312 7.234375 C 6.820312 7.320312 7.222656 7.667969 7.324219 7.671875 C 7.488281 7.675781 7.714844 7.875 7.714844 8.011719 C 7.714844 8.082031 7.75 8.160156 7.796875 8.1875 C 7.839844 8.214844 7.875 8.390625 7.875 8.582031 C 7.875 9.113281 7.953125 9.136719 8.558594 8.789062 Z M 10.179688 7.847656 C 10.585938 7.394531 10.691406 7.3125 10.5 7.15625 C 10.429688 7.101562 10.3125 6.964844 10.3125 6.910156 C 10.3125 6.855469 10.261719 6.765625 10.199219 6.714844 C 10.105469 6.636719 10.003906 6.695312 9.671875 7.023438 C 9.242188 7.441406 9.1875 7.601562 9.359375 7.917969 C 9.632812 8.421875 9.664062 8.421875 10.179688 7.847656 Z M 5.210938 7.550781 C 7.4375 7.042969 10.164062 5.433594 10.59375 4.378906 C 10.71875 4.066406 10.71875 4.027344 10.582031 3.699219 C 10.5 3.507812 10.410156 3.347656 10.375 3.347656 C 10.34375 3.347656 10.3125 3.277344 10.3125 3.1875 C 10.3125 2.9375 10.179688 3 9.917969 3.371094 C 9.589844 3.84375 9.304688 4.132812 8.726562 4.5625 C 7.921875 5.167969 6.753906 5.78125 5.886719 6.046875 C 4.78125 6.386719 4.578125 6.421875 3.46875 6.425781 C 2.855469 6.425781 2.601562 6.328125 2.351562 6.480469 C 2.535156 6.90625 2.808594 7.210938 3.140625 7.566406 C 3.386719 7.742188 4.628906 7.683594 5.210938 7.550781 Z M 10.695312 6.972656 C 10.667969 6.929688 10.707031 6.8125 10.664062 6.835938 C 10.621094 6.863281 10.578125 6.996094 10.601562 7.035156 C 10.628906 7.078125 10.640625 7.152344 10.679688 7.125 C 10.722656 7.101562 10.722656 7.015625 10.695312 6.972656 Z M 2.351562 5.949219 C 2.351562 5.839844 2.316406 5.75 2.269531 5.75 C 2.226562 5.75 2.1875 5.839844 2.1875 5.949219 C 2.1875 6.058594 2.226562 6.148438 2.269531 6.148438 C 2.316406 6.148438 2.351562 6.058594 2.351562 5.949219 Z M 6.25 5.679688 C 6.25 5.640625 6.179688 5.589844 6.089844 5.566406 C 6 5.542969 5.894531 5.429688 5.847656 5.316406 C 5.792969 5.167969 5.710938 5.109375 5.5625 5.109375 C 5.398438 5.109375 5.332031 5.066406 5.359375 4.910156 C 5.386719 4.738281 5.324219 4.625 5.277344 4.628906 C 5.230469 4.628906 5.195312 4.761719 5.195312 4.828125 C 5.195312 4.914062 5.113281 4.898438 4.921875 4.898438 C 4.683594 4.898438 4.628906 4.695312 4.589844 4.507812 C 4.53125 4.210938 4.664062 4.007812 4.792969 3.90625 C 5.203125 3.574219 5.851562 3.632812 5.902344 3.78125 C 6.03125 4.148438 6.195312 4.171875 6.089844 3.660156 C 6.066406 3.542969 6.1875 3.363281 6.332031 3.230469 C 6.46875 3.101562 6.578125 2.949219 6.578125 2.886719 C 6.578125 2.714844 7.242188 2.15625 7.449219 2.152344 C 7.671875 2.148438 7.699219 1.988281 7.480469 1.988281 C 7.394531 1.988281 7.304688 1.933594 7.277344 1.867188 C 7.242188 1.773438 7.066406 1.75 6.4375 1.75 C 5.78125 1.746094 5.53125 1.785156 5.007812 1.964844 C 4.441406 2.15625 4.351562 2.214844 4.210938 2.484375 C 4.121094 2.660156 3.996094 2.789062 3.914062 2.789062 C 3.765625 2.789062 3.164062 3.308594 3.164062 3.433594 C 3.164062 3.476562 3.21875 3.507812 3.285156 3.507812 C 3.351562 3.507812 3.40625 3.574219 3.40625 3.652344 C 3.40625 3.734375 3.480469 3.949219 3.570312 4.128906 C 3.660156 4.3125 3.734375 4.488281 3.734375 4.523438 C 3.738281 4.710938 4.386719 5.097656 4.835938 5.1875 C 5.472656 5.3125 5.746094 5.433594 5.792969 5.605469 C 5.832031 5.753906 6.25 5.816406 6.25 5.679688 Z M 9.988281 2.953125 C 10.125 2.699219 10.085938 2.570312 9.789062 2.277344 C 9.269531 1.765625 8.546875 1.417969 7.550781 1.199219 C 7.351562 1.15625 7.015625 1.082031 6.804688 1.035156 C 6.042969 0.863281 4.402344 0.972656 4.078125 1.210938 C 3.917969 1.332031 3.960938 1.429688 4.175781 1.429688 C 4.398438 1.429688 4.511719 1.558594 4.476562 1.769531 C 4.453125 1.917969 4.695312 1.964844 4.835938 1.839844 C 4.953125 1.730469 5.9375 1.507812 6.296875 1.507812 C 7.382812 1.511719 8.558594 1.957031 9.289062 2.636719 C 9.5625 2.894531 9.8125 3.105469 9.84375 3.105469 C 9.875 3.109375 9.941406 3.039062 9.988281 2.953125 Z M 3.960938 2.527344 C 4.128906 2.328125 4.285156 1.761719 4.191406 1.675781 C 3.988281 1.472656 3.824219 1.585938 3.679688 2.035156 C 3.554688 2.421875 3.554688 2.488281 3.65625 2.554688 C 3.8125 2.652344 3.859375 2.648438 3.960938 2.527344 Z M 3.960938 2.527344 "/>
</g>
</svg>
